<?xml version="1.0" encoding="UTF-8" standalone="no"?>
<!-- Created with Inkscape (http://www.inkscape.org/) -->

<svg
   xmlns:dc="http://purl.org/dc/elements/1.1/"
   xmlns:cc="http://creativecommons.org/ns#"
   xmlns:rdf="http://www.w3.org/1999/02/22-rdf-syntax-ns#"
   xmlns:svg="http://www.w3.org/2000/svg"
   xmlns="http://www.w3.org/2000/svg"
   xmlns:sodipodi="http://sodipodi.sourceforge.net/DTD/sodipodi-0.dtd"
   xmlns:inkscape="http://www.inkscape.org/namespaces/inkscape"
   width="34.176826mm"
   height="24.06426mm"
   viewBox="0 0 34.176826 24.064261"
   version="1.1"
   id="svg8"
   inkscape:version="0.92.2 (5c3e80d, 2017-08-06)">
  <defs
     id="defs2" />
  <sodipodi:namedview
     id="base"
     pagecolor="#ffffff"
     bordercolor="#666666"
     borderopacity="1.0"
     inkscape:pageopacity="0.0"
     inkscape:pageshadow="2"
     inkscape:zoom="0.7"
     inkscape:cx="-16.916016"
     inkscape:cy="100.24294"
     inkscape:document-units="mm"
     inkscape:current-layer="layer1"
     showgrid="false"
     inkscape:snap-global="false"
     fit-margin-top="0"
     fit-margin-left="0"
     fit-margin-right="0"
     fit-margin-bottom="0"
     inkscape:window-width="1366"
     inkscape:window-height="713"
     inkscape:window-x="0"
     inkscape:window-y="27"
     inkscape:window-maximized="1" />
  <metadata
     id="metadata5">
    <rdf:RDF>
      <cc:Work
         rdf:about="">
        <dc:format>image/svg+xml</dc:format>
        <dc:type
           rdf:resource="http://purl.org/dc/dcmitype/StillImage" />
        <dc:title></dc:title>
      </cc:Work>
    </rdf:RDF>
  </metadata>
  <g
     inkscape:label="Layer 1"
     inkscape:groupmode="layer"
     id="layer1"
     transform="translate(-70.68763,-70.034023)">
    <g
       style="stroke-width:7.70244217"
       id="g999"
       transform="matrix(0.03752479,0,0,0.03752479,123.83363,60.812813)">
      <text
         xml:space="preserve"
         style="font-style:normal;font-variant:normal;font-weight:normal;font-stretch:normal;font-size:203.73538208px;line-height:1.25;font-family:Milkshake;-inkscape-font-specification:'Milkshake, Normal';font-variant-ligatures:normal;font-variant-caps:normal;font-variant-numeric:normal;font-feature-settings:normal;text-align:start;letter-spacing:0px;word-spacing:0px;writing-mode:lr-tb;text-anchor:start;opacity:1;fill:#000000;fill-opacity:1;stroke:none;stroke-width:29.35334206"
         x="-1416.2904"
         y="611.10126"
         id="text991"><tspan
           sodipodi:role="line"
           id="tspan989"
           x="-1416.2904"
           y="611.10126"
           style="font-style:normal;font-variant:normal;font-weight:normal;font-stretch:normal;font-size:203.73538208px;font-family:Milkshake;-inkscape-font-specification:'Milkshake, Normal';font-variant-ligatures:normal;font-variant-caps:normal;font-variant-numeric:normal;font-feature-settings:normal;text-align:start;writing-mode:lr-tb;text-anchor:start;fill:#000000;stroke-width:29.35334206">Joshnwosu</tspan></text>
      <g
         style="stroke-width:7.70244217"
         id="g997"
         transform="translate(14.794323,2.0785897)">
        <path
           id="path993"
           transform="matrix(0.91541035,0,0,0.91541035,781.24234,-226.53865)"
           d="m -1919.0547,513.64844 a 10.001,10.001 0 0 0 -5.2344,1.33594 l -294.6894,170.13671 a 10.001,10.001 0 0 0 -4.9981,8.66016 v 85.28711 h 20 v -79.51367 l 284.6875,-164.36328 284.6856,164.36328 v 79.51367 h 20.0019 v -85.28711 a 10.001,10.001 0 0 0 -5,-8.66016 L -1914.291,514.98438 a 10.001,10.001 0 0 0 -4.7637,-1.33594 z m -304.9219,435.125 v 85.28516 a 10.001,10.001 0 0 0 4.9981,8.6602 l 294.6894,170.1367 a 10.001,10.001 0 0 0 9.9981,0 l 294.6894,-170.1367 a 10.001,10.001 0 0 0 5,-8.6602 v -85.28516 h -20.0019 v 79.51176 l -284.6856,164.3632 -284.6875,-164.3632 v -79.51176 z"
           style="color:#000000;font-style:normal;font-variant:normal;font-weight:normal;font-stretch:normal;font-size:medium;line-height:normal;font-family:sans-serif;font-variant-ligatures:normal;font-variant-position:normal;font-variant-caps:normal;font-variant-numeric:normal;font-variant-alternates:normal;font-feature-settings:normal;text-indent:0;text-align:start;text-decoration:none;text-decoration-line:none;text-decoration-style:solid;text-decoration-color:#000000;letter-spacing:normal;word-spacing:normal;text-transform:none;writing-mode:lr-tb;direction:ltr;text-orientation:mixed;dominant-baseline:auto;baseline-shift:baseline;text-anchor:start;white-space:normal;shape-padding:0;clip-rule:nonzero;display:inline;overflow:visible;visibility:visible;opacity:1;isolation:auto;mix-blend-mode:normal;color-interpolation:sRGB;color-interpolation-filters:linearRGB;solid-color:#000000;solid-opacity:1;vector-effect:none;fill:#000000;fill-opacity:1;fill-rule:nonzero;stroke:none;stroke-width:154.04884338;stroke-linecap:round;stroke-linejoin:round;stroke-miterlimit:4;stroke-dasharray:none;stroke-dashoffset:0;stroke-opacity:1;color-rendering:auto;image-rendering:auto;shape-rendering:auto;text-rendering:auto;enable-background:accumulate"
           inkscape:connector-curvature="0" />
        <path
           id="path995"
           transform="matrix(0.91541035,0,0,0.91541035,781.24234,-226.53865)"
           d="m -1919.0547,610.61328 a 9.9921939,10.009814 0 0 0 -5.2305,1.33789 l -210.3359,121.65039 a 9.9921939,10.009814 0 0 0 -4.9941,8.66797 v 36.79883 h 19.9824 v -31.01953 l 200.3437,-115.87305 200.3418,115.87305 v 31.01953 h 19.9825 v -36.79883 a 9.9921939,10.009814 0 0 0 -4.9942,-8.66797 l -210.3359,-121.65039 a 9.9921939,10.009814 0 0 0 -4.7598,-1.33789 z m -220.5605,338.16016 v 36.79687 a 9.9921939,10.009814 0 0 0 4.9941,8.66797 l 210.3359,121.65232 a 9.9921939,10.009814 0 0 0 9.9903,0 l 210.3359,-121.65232 a 9.9921939,10.009814 0 0 0 4.9942,-8.66797 v -36.79687 h -19.9825 v 31.01953 l -200.3418,115.87113 -200.3437,-115.87113 v -31.01953 z"
           style="color:#000000;font-style:normal;font-variant:normal;font-weight:normal;font-stretch:normal;font-size:medium;line-height:normal;font-family:sans-serif;font-variant-ligatures:normal;font-variant-position:normal;font-variant-caps:normal;font-variant-numeric:normal;font-variant-alternates:normal;font-feature-settings:normal;text-indent:0;text-align:start;text-decoration:none;text-decoration-line:none;text-decoration-style:solid;text-decoration-color:#000000;letter-spacing:normal;word-spacing:normal;text-transform:none;writing-mode:lr-tb;direction:ltr;text-orientation:mixed;dominant-baseline:auto;baseline-shift:baseline;text-anchor:start;white-space:normal;shape-padding:0;clip-rule:nonzero;display:inline;overflow:visible;visibility:visible;opacity:1;isolation:auto;mix-blend-mode:normal;color-interpolation:sRGB;color-interpolation-filters:linearRGB;solid-color:#000000;solid-opacity:1;vector-effect:none;fill:#000000;fill-opacity:1;fill-rule:nonzero;stroke:none;stroke-width:154.04884338;stroke-linecap:round;stroke-linejoin:round;stroke-miterlimit:4;stroke-dasharray:none;stroke-dashoffset:0;stroke-opacity:1;color-rendering:auto;image-rendering:auto;shape-rendering:auto;text-rendering:auto;enable-background:accumulate"
           inkscape:connector-curvature="0" />
      </g>
    </g>
    <g
       style="stroke-width:7.70244217"
       transform="matrix(0.03752479,0,0,0.03752479,170.70268,-5.6341646)"
       id="g1011">
      <text
         id="text1003"
         y="588.90839"
         x="-325.03967"
         style="font-style:normal;font-variant:normal;font-weight:normal;font-stretch:normal;font-size:203.73538208px;line-height:1.25;font-family:Milkshake;-inkscape-font-specification:'Milkshake, Normal';font-variant-ligatures:normal;font-variant-caps:normal;font-variant-numeric:normal;font-feature-settings:normal;text-align:start;letter-spacing:0px;word-spacing:0px;writing-mode:lr-tb;text-anchor:start;opacity:1;fill:#000000;fill-opacity:1;stroke:none;stroke-width:29.35334206"
         xml:space="preserve"><tspan
           style="font-style:normal;font-variant:normal;font-weight:normal;font-stretch:normal;font-size:203.73538208px;font-family:Milkshake;-inkscape-font-specification:'Milkshake, Normal';font-variant-ligatures:normal;font-variant-caps:normal;font-variant-numeric:normal;font-feature-settings:normal;text-align:start;writing-mode:lr-tb;text-anchor:start;fill:#000000;stroke-width:29.35334206"
           y="588.90839"
           x="-325.03967"
           id="tspan1001"
           sodipodi:role="line">Jaynwosu</tspan></text>
      <g
         style="stroke-width:7.70244217"
         transform="translate(1065.2582,-20.114309)"
         id="g1009">
        <path
           inkscape:connector-curvature="0"
           style="color:#000000;font-style:normal;font-variant:normal;font-weight:normal;font-stretch:normal;font-size:medium;line-height:normal;font-family:sans-serif;font-variant-ligatures:normal;font-variant-position:normal;font-variant-caps:normal;font-variant-numeric:normal;font-variant-alternates:normal;font-feature-settings:normal;text-indent:0;text-align:start;text-decoration:none;text-decoration-line:none;text-decoration-style:solid;text-decoration-color:#000000;letter-spacing:normal;word-spacing:normal;text-transform:none;writing-mode:lr-tb;direction:ltr;text-orientation:mixed;dominant-baseline:auto;baseline-shift:baseline;text-anchor:start;white-space:normal;shape-padding:0;clip-rule:nonzero;display:inline;overflow:visible;visibility:visible;opacity:1;isolation:auto;mix-blend-mode:normal;color-interpolation:sRGB;color-interpolation-filters:linearRGB;solid-color:#000000;solid-opacity:1;vector-effect:none;fill:#000000;fill-opacity:1;fill-rule:nonzero;stroke:none;stroke-width:154.04884338;stroke-linecap:round;stroke-linejoin:round;stroke-miterlimit:4;stroke-dasharray:none;stroke-dashoffset:0;stroke-opacity:1;color-rendering:auto;image-rendering:auto;shape-rendering:auto;text-rendering:auto;enable-background:accumulate"
           d="m -1919.0547,513.64844 a 10.001,10.001 0 0 0 -5.2344,1.33594 l -294.6894,170.13671 a 10.001,10.001 0 0 0 -4.9981,8.66016 v 85.28711 h 20 v -79.51367 l 284.6875,-164.36328 284.6856,164.36328 v 79.51367 h 20.0019 v -85.28711 a 10.001,10.001 0 0 0 -5,-8.66016 L -1914.291,514.98438 a 10.001,10.001 0 0 0 -4.7637,-1.33594 z m -304.9219,435.125 v 85.28516 a 10.001,10.001 0 0 0 4.9981,8.6602 l 294.6894,170.1367 a 10.001,10.001 0 0 0 9.9981,0 l 294.6894,-170.1367 a 10.001,10.001 0 0 0 5,-8.6602 v -85.28516 h -20.0019 v 79.51176 l -284.6856,164.3632 -284.6875,-164.3632 v -79.51176 z"
           transform="matrix(0.91541035,0,0,0.91541035,781.24234,-226.53865)"
           id="path1005" />
        <path
           inkscape:connector-curvature="0"
           style="color:#000000;font-style:normal;font-variant:normal;font-weight:normal;font-stretch:normal;font-size:medium;line-height:normal;font-family:sans-serif;font-variant-ligatures:normal;font-variant-position:normal;font-variant-caps:normal;font-variant-numeric:normal;font-variant-alternates:normal;font-feature-settings:normal;text-indent:0;text-align:start;text-decoration:none;text-decoration-line:none;text-decoration-style:solid;text-decoration-color:#000000;letter-spacing:normal;word-spacing:normal;text-transform:none;writing-mode:lr-tb;direction:ltr;text-orientation:mixed;dominant-baseline:auto;baseline-shift:baseline;text-anchor:start;white-space:normal;shape-padding:0;clip-rule:nonzero;display:inline;overflow:visible;visibility:visible;opacity:1;isolation:auto;mix-blend-mode:normal;color-interpolation:sRGB;color-interpolation-filters:linearRGB;solid-color:#000000;solid-opacity:1;vector-effect:none;fill:#000000;fill-opacity:1;fill-rule:nonzero;stroke:none;stroke-width:154.04884338;stroke-linecap:round;stroke-linejoin:round;stroke-miterlimit:4;stroke-dasharray:none;stroke-dashoffset:0;stroke-opacity:1;color-rendering:auto;image-rendering:auto;shape-rendering:auto;text-rendering:auto;enable-background:accumulate"
           d="m -1919.0547,610.61328 a 9.9921939,10.009814 0 0 0 -5.2305,1.33789 l -210.3359,121.65039 a 9.9921939,10.009814 0 0 0 -4.9941,8.66797 v 36.79883 h 19.9824 v -31.01953 l 200.3437,-115.87305 200.3418,115.87305 v 31.01953 h 19.9825 v -36.79883 a 9.9921939,10.009814 0 0 0 -4.9942,-8.66797 l -210.3359,-121.65039 a 9.9921939,10.009814 0 0 0 -4.7598,-1.33789 z m -220.5605,338.16016 v 36.79687 a 9.9921939,10.009814 0 0 0 4.9941,8.66797 l 210.3359,121.65232 a 9.9921939,10.009814 0 0 0 9.9903,0 l 210.3359,-121.65232 a 9.9921939,10.009814 0 0 0 4.9942,-8.66797 v -36.79687 h -19.9825 v 31.01953 l -200.3418,115.87113 -200.3437,-115.87113 v -31.01953 z"
           transform="matrix(0.91541035,0,0,0.91541035,781.24234,-226.53865)"
           id="path1007" />
      </g>
    </g>
    <rect
       style="opacity:1;fill:#000000;fill-opacity:1;stroke:#000000;stroke-width:0;stroke-linecap:round;stroke-linejoin:round;stroke-miterlimit:4;stroke-dasharray:none;stroke-opacity:1"
       id="rect987"
       width="99.120033"
       height="42.817162"
       x="-73.528297"
       y="-6.9017458" />
    <g
       id="g1028"
       transform="translate(-119.0625,-52.160714)">
      <text
         id="text949"
         y="71.34948"
         x="52.585617"
         style="font-style:normal;font-variant:normal;font-weight:normal;font-stretch:normal;font-size:7.64512634px;line-height:1.25;font-family:Milkshake;-inkscape-font-specification:'Milkshake, Normal';font-variant-ligatures:normal;font-variant-caps:normal;font-variant-numeric:normal;font-feature-settings:normal;text-align:start;letter-spacing:0px;word-spacing:0px;writing-mode:lr-tb;text-anchor:start;opacity:1;fill:#ffffff;fill-opacity:1;stroke:none;stroke-width:1.10147786"
         xml:space="preserve"><tspan
           style="font-style:normal;font-variant:normal;font-weight:normal;font-stretch:normal;font-size:7.64512634px;font-family:Milkshake;-inkscape-font-specification:'Milkshake, Normal';font-variant-ligatures:normal;font-variant-caps:normal;font-variant-numeric:normal;font-feature-settings:normal;text-align:start;writing-mode:lr-tb;text-anchor:start;fill:#ffffff;stroke-width:1.10147786"
           y="71.34948"
           x="52.585617"
           id="tspan947"
           sodipodi:role="line">Joshnwosu</tspan></text>
      <g
         transform="matrix(0.03752479,0,0,0.03752479,106.28676,48.496032)"
         id="g955"
         style="fill:#ffffff;stroke-width:7.70244217">
        <path
           inkscape:connector-curvature="0"
           style="color:#000000;font-style:normal;font-variant:normal;font-weight:normal;font-stretch:normal;font-size:medium;line-height:normal;font-family:sans-serif;font-variant-ligatures:normal;font-variant-position:normal;font-variant-caps:normal;font-variant-numeric:normal;font-variant-alternates:normal;font-feature-settings:normal;text-indent:0;text-align:start;text-decoration:none;text-decoration-line:none;text-decoration-style:solid;text-decoration-color:#000000;letter-spacing:normal;word-spacing:normal;text-transform:none;writing-mode:lr-tb;direction:ltr;text-orientation:mixed;dominant-baseline:auto;baseline-shift:baseline;text-anchor:start;white-space:normal;shape-padding:0;clip-rule:nonzero;display:inline;overflow:visible;visibility:visible;opacity:1;isolation:auto;mix-blend-mode:normal;color-interpolation:sRGB;color-interpolation-filters:linearRGB;solid-color:#000000;solid-opacity:1;vector-effect:none;fill:#ffffff;fill-opacity:1;fill-rule:nonzero;stroke:none;stroke-width:154.04884338;stroke-linecap:round;stroke-linejoin:round;stroke-miterlimit:4;stroke-dasharray:none;stroke-dashoffset:0;stroke-opacity:1;color-rendering:auto;image-rendering:auto;shape-rendering:auto;text-rendering:auto;enable-background:accumulate"
           d="m -1919.0547,513.64844 a 10.001,10.001 0 0 0 -5.2344,1.33594 l -294.6894,170.13671 a 10.001,10.001 0 0 0 -4.9981,8.66016 v 85.28711 h 20 v -79.51367 l 284.6875,-164.36328 284.6856,164.36328 v 79.51367 h 20.0019 v -85.28711 a 10.001,10.001 0 0 0 -5,-8.66016 L -1914.291,514.98438 a 10.001,10.001 0 0 0 -4.7637,-1.33594 z m -304.9219,435.125 v 85.28516 a 10.001,10.001 0 0 0 4.9981,8.6602 l 294.6894,170.1367 a 10.001,10.001 0 0 0 9.9981,0 l 294.6894,-170.1367 a 10.001,10.001 0 0 0 5,-8.6602 v -85.28516 h -20.0019 v 79.51176 l -284.6856,164.3632 -284.6875,-164.3632 v -79.51176 z"
           transform="matrix(0.91541035,0,0,0.91541035,781.24234,-226.53865)"
           id="path951" />
        <path
           inkscape:connector-curvature="0"
           style="color:#000000;font-style:normal;font-variant:normal;font-weight:normal;font-stretch:normal;font-size:medium;line-height:normal;font-family:sans-serif;font-variant-ligatures:normal;font-variant-position:normal;font-variant-caps:normal;font-variant-numeric:normal;font-variant-alternates:normal;font-feature-settings:normal;text-indent:0;text-align:start;text-decoration:none;text-decoration-line:none;text-decoration-style:solid;text-decoration-color:#000000;letter-spacing:normal;word-spacing:normal;text-transform:none;writing-mode:lr-tb;direction:ltr;text-orientation:mixed;dominant-baseline:auto;baseline-shift:baseline;text-anchor:start;white-space:normal;shape-padding:0;clip-rule:nonzero;display:inline;overflow:visible;visibility:visible;opacity:1;isolation:auto;mix-blend-mode:normal;color-interpolation:sRGB;color-interpolation-filters:linearRGB;solid-color:#000000;solid-opacity:1;vector-effect:none;fill:#ffffff;fill-opacity:1;fill-rule:nonzero;stroke:none;stroke-width:154.04884338;stroke-linecap:round;stroke-linejoin:round;stroke-miterlimit:4;stroke-dasharray:none;stroke-dashoffset:0;stroke-opacity:1;color-rendering:auto;image-rendering:auto;shape-rendering:auto;text-rendering:auto;enable-background:accumulate"
           d="m -1919.0547,610.61328 a 9.9921939,10.009814 0 0 0 -5.2305,1.33789 l -210.3359,121.65039 a 9.9921939,10.009814 0 0 0 -4.9941,8.66797 v 36.79883 h 19.9824 v -31.01953 l 200.3437,-115.87305 200.3418,115.87305 v 31.01953 h 19.9825 v -36.79883 a 9.9921939,10.009814 0 0 0 -4.9942,-8.66797 l -210.3359,-121.65039 a 9.9921939,10.009814 0 0 0 -4.7598,-1.33789 z m -220.5605,338.16016 v 36.79687 a 9.9921939,10.009814 0 0 0 4.9941,8.66797 l 210.3359,121.65232 a 9.9921939,10.009814 0 0 0 9.9903,0 l 210.3359,-121.65232 a 9.9921939,10.009814 0 0 0 4.9942,-8.66797 v -36.79687 h -19.9825 v 31.01953 l -200.3418,115.87113 -200.3437,-115.87113 v -31.01953 z"
           transform="matrix(0.91541035,0,0,0.91541035,781.24234,-226.53865)"
           id="path953" />
      </g>
    </g>
    <g
       id="g1035"
       transform="translate(-104.32143,-54.806548)">
      <text
         xml:space="preserve"
         style="font-style:normal;font-variant:normal;font-weight:normal;font-stretch:normal;font-size:7.64512634px;line-height:1.25;font-family:Milkshake;-inkscape-font-specification:'Milkshake, Normal';font-variant-ligatures:normal;font-variant-caps:normal;font-variant-numeric:normal;font-feature-settings:normal;text-align:start;letter-spacing:0px;word-spacing:0px;writing-mode:lr-tb;text-anchor:start;opacity:1;fill:#ffffff;fill-opacity:1;stroke:none;stroke-width:1.10147786"
         x="93.534561"
         y="71.34948"
         id="text852"><tspan
           sodipodi:role="line"
           id="tspan850"
           x="93.534561"
           y="71.34948"
           style="font-style:normal;font-variant:normal;font-weight:normal;font-stretch:normal;font-size:7.64512634px;font-family:Milkshake;-inkscape-font-specification:'Milkshake, Normal';font-variant-ligatures:normal;font-variant-caps:normal;font-variant-numeric:normal;font-feature-settings:normal;text-align:start;writing-mode:lr-tb;text-anchor:start;fill:#ffffff;stroke-width:1.10147786">Jaynwosu</tspan></text>
      <g
         id="g945"
         transform="matrix(0.03752479,0,0,0.03752479,145.70519,48.496031)"
         style="fill:#ffffff;stroke-width:7.70244217">
        <path
           id="path925"
           transform="matrix(0.91541035,0,0,0.91541035,781.24234,-226.53865)"
           d="m -1919.0547,513.64844 a 10.001,10.001 0 0 0 -5.2344,1.33594 l -294.6894,170.13671 a 10.001,10.001 0 0 0 -4.9981,8.66016 v 85.28711 h 20 v -79.51367 l 284.6875,-164.36328 284.6856,164.36328 v 79.51367 h 20.0019 v -85.28711 a 10.001,10.001 0 0 0 -5,-8.66016 L -1914.291,514.98438 a 10.001,10.001 0 0 0 -4.7637,-1.33594 z m -304.9219,435.125 v 85.28516 a 10.001,10.001 0 0 0 4.9981,8.6602 l 294.6894,170.1367 a 10.001,10.001 0 0 0 9.9981,0 l 294.6894,-170.1367 a 10.001,10.001 0 0 0 5,-8.6602 v -85.28516 h -20.0019 v 79.51176 l -284.6856,164.3632 -284.6875,-164.3632 v -79.51176 z"
           style="color:#000000;font-style:normal;font-variant:normal;font-weight:normal;font-stretch:normal;font-size:medium;line-height:normal;font-family:sans-serif;font-variant-ligatures:normal;font-variant-position:normal;font-variant-caps:normal;font-variant-numeric:normal;font-variant-alternates:normal;font-feature-settings:normal;text-indent:0;text-align:start;text-decoration:none;text-decoration-line:none;text-decoration-style:solid;text-decoration-color:#000000;letter-spacing:normal;word-spacing:normal;text-transform:none;writing-mode:lr-tb;direction:ltr;text-orientation:mixed;dominant-baseline:auto;baseline-shift:baseline;text-anchor:start;white-space:normal;shape-padding:0;clip-rule:nonzero;display:inline;overflow:visible;visibility:visible;opacity:1;isolation:auto;mix-blend-mode:normal;color-interpolation:sRGB;color-interpolation-filters:linearRGB;solid-color:#000000;solid-opacity:1;vector-effect:none;fill:#ffffff;fill-opacity:1;fill-rule:nonzero;stroke:none;stroke-width:154.04884338;stroke-linecap:round;stroke-linejoin:round;stroke-miterlimit:4;stroke-dasharray:none;stroke-dashoffset:0;stroke-opacity:1;color-rendering:auto;image-rendering:auto;shape-rendering:auto;text-rendering:auto;enable-background:accumulate"
           inkscape:connector-curvature="0" />
        <path
           id="path927"
           transform="matrix(0.91541035,0,0,0.91541035,781.24234,-226.53865)"
           d="m -1919.0547,610.61328 a 9.9921939,10.009814 0 0 0 -5.2305,1.33789 l -210.3359,121.65039 a 9.9921939,10.009814 0 0 0 -4.9941,8.66797 v 36.79883 h 19.9824 v -31.01953 l 200.3437,-115.87305 200.3418,115.87305 v 31.01953 h 19.9825 v -36.79883 a 9.9921939,10.009814 0 0 0 -4.9942,-8.66797 l -210.3359,-121.65039 a 9.9921939,10.009814 0 0 0 -4.7598,-1.33789 z m -220.5605,338.16016 v 36.79687 a 9.9921939,10.009814 0 0 0 4.9941,8.66797 l 210.3359,121.65232 a 9.9921939,10.009814 0 0 0 9.9903,0 l 210.3359,-121.65232 a 9.9921939,10.009814 0 0 0 4.9942,-8.66797 v -36.79687 h -19.9825 v 31.01953 l -200.3418,115.87113 -200.3437,-115.87113 v -31.01953 z"
           style="color:#000000;font-style:normal;font-variant:normal;font-weight:normal;font-stretch:normal;font-size:medium;line-height:normal;font-family:sans-serif;font-variant-ligatures:normal;font-variant-position:normal;font-variant-caps:normal;font-variant-numeric:normal;font-variant-alternates:normal;font-feature-settings:normal;text-indent:0;text-align:start;text-decoration:none;text-decoration-line:none;text-decoration-style:solid;text-decoration-color:#000000;letter-spacing:normal;word-spacing:normal;text-transform:none;writing-mode:lr-tb;direction:ltr;text-orientation:mixed;dominant-baseline:auto;baseline-shift:baseline;text-anchor:start;white-space:normal;shape-padding:0;clip-rule:nonzero;display:inline;overflow:visible;visibility:visible;opacity:1;isolation:auto;mix-blend-mode:normal;color-interpolation:sRGB;color-interpolation-filters:linearRGB;solid-color:#000000;solid-opacity:1;vector-effect:none;fill:#ffffff;fill-opacity:1;fill-rule:nonzero;stroke:none;stroke-width:154.04884338;stroke-linecap:round;stroke-linejoin:round;stroke-miterlimit:4;stroke-dasharray:none;stroke-dashoffset:0;stroke-opacity:1;color-rendering:auto;image-rendering:auto;shape-rendering:auto;text-rendering:auto;enable-background:accumulate"
           inkscape:connector-curvature="0" />
      </g>
    </g>
  </g>
</svg>
