<?xml version="1.0" encoding="UTF-8" standalone="no"?>
<!-- Created with Inkscape (http://www.inkscape.org/) -->

<svg
   xmlns:dc="http://purl.org/dc/elements/1.1/"
   xmlns:cc="http://creativecommons.org/ns#"
   xmlns:rdf="http://www.w3.org/1999/02/22-rdf-syntax-ns#"
   xmlns:svg="http://www.w3.org/2000/svg"
   xmlns="http://www.w3.org/2000/svg"
   xmlns:sodipodi="http://sodipodi.sourceforge.net/DTD/sodipodi-0.dtd"
   xmlns:inkscape="http://www.inkscape.org/namespaces/inkscape"
   width="34.176826mm"
   height="24.06426mm"
   viewBox="0 0 34.176826 24.064261"
   version="1.1"
   id="svg8"
   inkscape:version="0.92.2 (5c3e80d, 2017-08-06)">
  <defs
     id="defs2" />
  <sodipodi:namedview
     id="base"
     pagecolor="#ffffff"
     bordercolor="#666666"
     borderopacity="1.0"
     inkscape:pageopacity="0.0"
     inkscape:pageshadow="2"
     inkscape:zoom="0.7"
     inkscape:cx="-45.487431"
     inkscape:cy="88.814375"
     inkscape:document-units="mm"
     inkscape:current-layer="layer1"
     showgrid="false"
     inkscape:snap-global="false"
     fit-margin-top="0"
     fit-margin-left="0"
     fit-margin-right="0"
     fit-margin-bottom="0"
     inkscape:window-width="1366"
     inkscape:window-height="713"
     inkscape:window-x="0"
     inkscape:window-y="27"
     inkscape:window-maximized="1" />
  <metadata
     id="metadata5">
    <rdf:RDF>
      <cc:Work
         rdf:about="">
        <dc:format>image/svg+xml</dc:format>
        <dc:type
           rdf:resource="http://purl.org/dc/dcmitype/StillImage" />
        <dc:title></dc:title>
      </cc:Work>
    </rdf:RDF>
  </metadata>
  <g
     inkscape:label="Layer 1"
     inkscape:groupmode="layer"
     id="layer1"
     transform="translate(-78.24715,-67.010213)">
    <g
       style="stroke-width:7.70244217"
       id="g999"
       transform="matrix(0.03752479,0,0,0.03752479,131.39315,57.789003)">
      <text
         xml:space="preserve"
         style="font-style:normal;font-variant:normal;font-weight:normal;font-stretch:normal;font-size:203.73538208px;line-height:1.25;font-family:Milkshake;-inkscape-font-specification:'Milkshake, Normal';font-variant-ligatures:normal;font-variant-caps:normal;font-variant-numeric:normal;font-feature-settings:normal;text-align:start;letter-spacing:0px;word-spacing:0px;writing-mode:lr-tb;text-anchor:start;opacity:1;fill:#000000;fill-opacity:1;stroke:none;stroke-width:29.35334206"
         x="-1416.2904"
         y="611.10126"
         id="text991"><tspan
           sodipodi:role="line"
           id="tspan989"
           x="-1416.2904"
           y="611.10126"
           style="font-style:normal;font-variant:normal;font-weight:normal;font-stretch:normal;font-size:203.73538208px;font-family:Milkshake;-inkscape-font-specification:'Milkshake, Normal';font-variant-ligatures:normal;font-variant-caps:normal;font-variant-numeric:normal;font-feature-settings:normal;text-align:start;writing-mode:lr-tb;text-anchor:start;fill:#000000;stroke-width:29.35334206">Joshnwosu</tspan></text>
      <g
         style="stroke-width:7.70244217"
         id="g997"
         transform="translate(14.794323,2.0785897)">
        <path
           id="path993"
           transform="matrix(0.91541035,0,0,0.91541035,781.24234,-226.53865)"
           d="m -1919.0547,513.64844 a 10.001,10.001 0 0 0 -5.2344,1.33594 l -294.6894,170.13671 a 10.001,10.001 0 0 0 -4.9981,8.66016 v 85.28711 h 20 v -79.51367 l 284.6875,-164.36328 284.6856,164.36328 v 79.51367 h 20.0019 v -85.28711 a 10.001,10.001 0 0 0 -5,-8.66016 L -1914.291,514.98438 a 10.001,10.001 0 0 0 -4.7637,-1.33594 z m -304.9219,435.125 v 85.28516 a 10.001,10.001 0 0 0 4.9981,8.6602 l 294.6894,170.1367 a 10.001,10.001 0 0 0 9.9981,0 l 294.6894,-170.1367 a 10.001,10.001 0 0 0 5,-8.6602 v -85.28516 h -20.0019 v 79.51176 l -284.6856,164.3632 -284.6875,-164.3632 v -79.51176 z"
           style="color:#000000;font-style:normal;font-variant:normal;font-weight:normal;font-stretch:normal;font-size:medium;line-height:normal;font-family:sans-serif;font-variant-ligatures:normal;font-variant-position:normal;font-variant-caps:normal;font-variant-numeric:normal;font-variant-alternates:normal;font-feature-settings:normal;text-indent:0;text-align:start;text-decoration:none;text-decoration-line:none;text-decoration-style:solid;text-decoration-color:#000000;letter-spacing:normal;word-spacing:normal;text-transform:none;writing-mode:lr-tb;direction:ltr;text-orientation:mixed;dominant-baseline:auto;baseline-shift:baseline;text-anchor:start;white-space:normal;shape-padding:0;clip-rule:nonzero;display:inline;overflow:visible;visibility:visible;opacity:1;isolation:auto;mix-blend-mode:normal;color-interpolation:sRGB;color-interpolation-filters:linearRGB;solid-color:#000000;solid-opacity:1;vector-effect:none;fill:#000000;fill-opacity:1;fill-rule:nonzero;stroke:none;stroke-width:154.04884338;stroke-linecap:round;stroke-linejoin:round;stroke-miterlimit:4;stroke-dasharray:none;stroke-dashoffset:0;stroke-opacity:1;color-rendering:auto;image-rendering:auto;shape-rendering:auto;text-rendering:auto;enable-background:accumulate"
           inkscape:connector-curvature="0" />
        <path
           id="path995"
           transform="matrix(0.91541035,0,0,0.91541035,781.24234,-226.53865)"
           d="m -1919.0547,610.61328 a 9.9921939,10.009814 0 0 0 -5.2305,1.33789 l -210.3359,121.65039 a 9.9921939,10.009814 0 0 0 -4.9941,8.66797 v 36.79883 h 19.9824 v -31.01953 l 200.3437,-115.87305 200.3418,115.87305 v 31.01953 h 19.9825 v -36.79883 a 9.9921939,10.009814 0 0 0 -4.9942,-8.66797 l -210.3359,-121.65039 a 9.9921939,10.009814 0 0 0 -4.7598,-1.33789 z m -220.5605,338.16016 v 36.79687 a 9.9921939,10.009814 0 0 0 4.9941,8.66797 l 210.3359,121.65232 a 9.9921939,10.009814 0 0 0 9.9903,0 l 210.3359,-121.65232 a 9.9921939,10.009814 0 0 0 4.9942,-8.66797 v -36.79687 h -19.9825 v 31.01953 l -200.3418,115.87113 -200.3437,-115.87113 v -31.01953 z"
           style="color:#000000;font-style:normal;font-variant:normal;font-weight:normal;font-stretch:normal;font-size:medium;line-height:normal;font-family:sans-serif;font-variant-ligatures:normal;font-variant-position:normal;font-variant-caps:normal;font-variant-numeric:normal;font-variant-alternates:normal;font-feature-settings:normal;text-indent:0;text-align:start;text-decoration:none;text-decoration-line:none;text-decoration-style:solid;text-decoration-color:#000000;letter-spacing:normal;word-spacing:normal;text-transform:none;writing-mode:lr-tb;direction:ltr;text-orientation:mixed;dominant-baseline:auto;baseline-shift:baseline;text-anchor:start;white-space:normal;shape-padding:0;clip-rule:nonzero;display:inline;overflow:visible;visibility:visible;opacity:1;isolation:auto;mix-blend-mode:normal;color-interpolation:sRGB;color-interpolation-filters:linearRGB;solid-color:#000000;solid-opacity:1;vector-effect:none;fill:#000000;fill-opacity:1;fill-rule:nonzero;stroke:none;stroke-width:154.04884338;stroke-linecap:round;stroke-linejoin:round;stroke-miterlimit:4;stroke-dasharray:none;stroke-dashoffset:0;stroke-opacity:1;color-rendering:auto;image-rendering:auto;shape-rendering:auto;text-rendering:auto;enable-background:accumulate"
           inkscape:connector-curvature="0" />
      </g>
    </g>
    <g
       style="stroke-width:7.70244217"
       transform="matrix(0.03752479,0,0,0.03752479,170.70268,-5.6341646)"
       id="g1011">
      <text
         id="text1003"
         y="588.90839"
         x="-325.03967"
         style="font-style:normal;font-variant:normal;font-weight:normal;font-stretch:normal;font-size:203.73538208px;line-height:1.25;font-family:Milkshake;-inkscape-font-specification:'Milkshake, Normal';font-variant-ligatures:normal;font-variant-caps:normal;font-variant-numeric:normal;font-feature-settings:normal;text-align:start;letter-spacing:0px;word-spacing:0px;writing-mode:lr-tb;text-anchor:start;opacity:1;fill:#000000;fill-opacity:1;stroke:none;stroke-width:29.35334206"
         xml:space="preserve"><tspan
           style="font-style:normal;font-variant:normal;font-weight:normal;font-stretch:normal;font-size:203.73538208px;font-family:Milkshake;-inkscape-font-specification:'Milkshake, Normal';font-variant-ligatures:normal;font-variant-caps:normal;font-variant-numeric:normal;font-feature-settings:normal;text-align:start;writing-mode:lr-tb;text-anchor:start;fill:#000000;stroke-width:29.35334206"
           y="588.90839"
           x="-325.03967"
           id="tspan1001"
           sodipodi:role="line">Jaynwosu</tspan></text>
      <g
         style="stroke-width:7.70244217"
         transform="translate(1065.2582,-20.114309)"
         id="g1009">
        <path
           inkscape:connector-curvature="0"
           style="color:#000000;font-style:normal;font-variant:normal;font-weight:normal;font-stretch:normal;font-size:medium;line-height:normal;font-family:sans-serif;font-variant-ligatures:normal;font-variant-position:normal;font-variant-caps:normal;font-variant-numeric:normal;font-variant-alternates:normal;font-feature-settings:normal;text-indent:0;text-align:start;text-decoration:none;text-decoration-line:none;text-decoration-style:solid;text-decoration-color:#000000;letter-spacing:normal;word-spacing:normal;text-transform:none;writing-mode:lr-tb;direction:ltr;text-orientation:mixed;dominant-baseline:auto;baseline-shift:baseline;text-anchor:start;white-space:normal;shape-padding:0;clip-rule:nonzero;display:inline;overflow:visible;visibility:visible;opacity:1;isolation:auto;mix-blend-mode:normal;color-interpolation:sRGB;color-interpolation-filters:linearRGB;solid-color:#000000;solid-opacity:1;vector-effect:none;fill:#000000;fill-opacity:1;fill-rule:nonzero;stroke:none;stroke-width:154.04884338;stroke-linecap:round;stroke-linejoin:round;stroke-miterlimit:4;stroke-dasharray:none;stroke-dashoffset:0;stroke-opacity:1;color-rendering:auto;image-rendering:auto;shape-rendering:auto;text-rendering:auto;enable-background:accumulate"
           d="m -1919.0547,513.64844 a 10.001,10.001 0 0 0 -5.2344,1.33594 l -294.6894,170.13671 a 10.001,10.001 0 0 0 -4.9981,8.66016 v 85.28711 h 20 v -79.51367 l 284.6875,-164.36328 284.6856,164.36328 v 79.51367 h 20.0019 v -85.28711 a 10.001,10.001 0 0 0 -5,-8.66016 L -1914.291,514.98438 a 10.001,10.001 0 0 0 -4.7637,-1.33594 z m -304.9219,435.125 v 85.28516 a 10.001,10.001 0 0 0 4.9981,8.6602 l 294.6894,170.1367 a 10.001,10.001 0 0 0 9.9981,0 l 294.6894,-170.1367 a 10.001,10.001 0 0 0 5,-8.6602 v -85.28516 h -20.0019 v 79.51176 l -284.6856,164.3632 -284.6875,-164.3632 v -79.51176 z"
           transform="matrix(0.91541035,0,0,0.91541035,781.24234,-226.53865)"
           id="path1005" />
        <path
           inkscape:connector-curvature="0"
           style="color:#000000;font-style:normal;font-variant:normal;font-weight:normal;font-stretch:normal;font-size:medium;line-height:normal;font-family:sans-serif;font-variant-ligatures:normal;font-variant-position:normal;font-variant-caps:normal;font-variant-numeric:normal;font-variant-alternates:normal;font-feature-settings:normal;text-indent:0;text-align:start;text-decoration:none;text-decoration-line:none;text-decoration-style:solid;text-decoration-color:#000000;letter-spacing:normal;word-spacing:normal;text-transform:none;writing-mode:lr-tb;direction:ltr;text-orientation:mixed;dominant-baseline:auto;baseline-shift:baseline;text-anchor:start;white-space:normal;shape-padding:0;clip-rule:nonzero;display:inline;overflow:visible;visibility:visible;opacity:1;isolation:auto;mix-blend-mode:normal;color-interpolation:sRGB;color-interpolation-filters:linearRGB;solid-color:#000000;solid-opacity:1;vector-effect:none;fill:#000000;fill-opacity:1;fill-rule:nonzero;stroke:none;stroke-width:154.04884338;stroke-linecap:round;stroke-linejoin:round;stroke-miterlimit:4;stroke-dasharray:none;stroke-dashoffset:0;stroke-opacity:1;color-rendering:auto;image-rendering:auto;shape-rendering:auto;text-rendering:auto;enable-background:accumulate"
           d="m -1919.0547,610.61328 a 9.9921939,10.009814 0 0 0 -5.2305,1.33789 l -210.3359,121.65039 a 9.9921939,10.009814 0 0 0 -4.9941,8.66797 v 36.79883 h 19.9824 v -31.01953 l 200.3437,-115.87305 200.3418,115.87305 v 31.01953 h 19.9825 v -36.79883 a 9.9921939,10.009814 0 0 0 -4.9942,-8.66797 l -210.3359,-121.65039 a 9.9921939,10.009814 0 0 0 -4.7598,-1.33789 z m -220.5605,338.16016 v 36.79687 a 9.9921939,10.009814 0 0 0 4.9941,8.66797 l 210.3359,121.65232 a 9.9921939,10.009814 0 0 0 9.9903,0 l 210.3359,-121.65232 a 9.9921939,10.009814 0 0 0 4.9942,-8.66797 v -36.79687 h -19.9825 v 31.01953 l -200.3418,115.87113 -200.3437,-115.87113 v -31.01953 z"
           transform="matrix(0.91541035,0,0,0.91541035,781.24234,-226.53865)"
           id="path1007" />
      </g>
    </g>
    <rect
       style="opacity:1;fill:#000000;fill-opacity:1;stroke:#000000;stroke-width:0;stroke-linecap:round;stroke-linejoin:round;stroke-miterlimit:4;stroke-dasharray:none;stroke-opacity:1"
       id="rect987"
       width="99.120033"
       height="42.817162"
       x="-73.528297"
       y="-6.9017458" />
    <g
       id="g1028"
       transform="translate(-111.125,-57.074405)">
      <g
         aria-label="Joshnwosu"
         style="font-style:normal;font-variant:normal;font-weight:normal;font-stretch:normal;font-size:7.64512634px;line-height:1.25;font-family:Milkshake;-inkscape-font-specification:'Milkshake, Normal';font-variant-ligatures:normal;font-variant-caps:normal;font-variant-numeric:normal;font-feature-settings:normal;text-align:start;letter-spacing:0px;word-spacing:0px;writing-mode:lr-tb;text-anchor:start;opacity:1;fill:#ffffff;fill-opacity:1;stroke:none;stroke-width:1.10147786"
         id="text949">
        <path
           d="m 55.79657,68.513138 c -0.28287,1.009156 -0.565739,2.025958 -0.863899,2.843987 -1.154414,0.183483 -2.347054,0.31345 -2.347054,1.100898 0,0.496933 0.61161,1.070318 1.406703,1.070318 1.016802,0 1.620767,-0.840964 2.003023,-2.018314 0.703352,-0.267579 1.047383,-0.619255 1.299672,-1.024447 0,0 0.06881,-0.122322 0.06881,-0.183483 0,-0.0841 -0.06881,-0.152902 -0.160548,-0.152902 -0.09174,0 -0.152902,0.107032 -0.152902,0.107032 -0.206419,0.31345 -0.458708,0.588674 -0.917415,0.787448 0.191128,-0.710997 0.321095,-1.513735 0.428127,-2.316474 0.175838,-1.330252 0.351676,-1.857765 0.481643,-1.987733 0.229354,-0.05352 0.542804,-0.290514 0.542804,-0.581029 0,-0.191128 -0.152903,-0.344031 -0.397547,-0.344031 -0.267579,0 -0.512223,0.31345 -0.749222,0.626901 -1.047383,0.489288 -2.798116,1.299671 -2.798116,2.469375 0,0.710997 0.733932,1.17735 1.116188,1.17735 0.09174,0 0.152902,-0.04587 0.152902,-0.09939 0,-0.06116 -0.07645,-0.09939 -0.122322,-0.137612 -0.114676,-0.09939 -0.267579,-0.244644 -0.267579,-0.565739 0,-1.421994 1.735444,-2.270603 1.735444,-2.270603 0,0 -0.122322,0.28287 -0.458708,1.498445 z m -2.079474,4.57943 c -0.191128,0 -0.374611,-0.160547 -0.374611,-0.366966 0,-0.366966 0.61161,-0.703351 1.399058,-0.879189 -0.31345,0.749222 -0.649836,1.246155 -1.024447,1.246155 z"
           style="font-style:normal;font-variant:normal;font-weight:normal;font-stretch:normal;font-size:7.64512634px;font-family:Milkshake;-inkscape-font-specification:'Milkshake, Normal';font-variant-ligatures:normal;font-variant-caps:normal;font-variant-numeric:normal;font-feature-settings:normal;text-align:start;writing-mode:lr-tb;text-anchor:start;fill:#ffffff;stroke-width:1.10147786"
           id="path1208"
           inkscape:connector-curvature="0" />
        <path
           d="m 60.696977,70.48558 c 0,0 0.06881,-0.114676 0.06881,-0.183483 0,-0.0841 -0.07645,-0.152902 -0.160548,-0.152902 -0.09174,0 -0.152902,0.107032 -0.152902,0.107032 0,0 -0.382257,0.519868 -0.902125,0.519868 -0.04587,0 -0.0841,-0.0076 -0.122322,-0.01529 0.29816,-0.382256 0.473998,-0.863899 0.473998,-1.269091 0,-0.703352 -0.489288,-1.131479 -1.123834,-1.131479 -0.795093,0 -1.773669,0.703352 -1.773669,1.987733 0,0.59632 0.558094,1.077963 1.192639,1.077963 0.328741,0 0.626901,-0.114677 0.871545,-0.305805 0.107032,0.01529 0.206418,0.02294 0.29816,0.02294 0.89448,0 1.330252,-0.657481 1.330252,-0.657481 z m -2.790471,0.05352 c 0,-1.032092 0.535158,-1.788959 0.879189,-1.788959 0.175838,0 0.29816,0.137612 0.29816,0.481643 0,0.336385 -0.0841,0.810383 -0.236999,1.192639 -0.02294,-0.0076 -0.05352,-0.01529 -0.0841,-0.01529 -0.122322,0 -0.382257,0.206419 -0.382257,0.374611 0,0.06881 0.04587,0.129967 0.129968,0.183483 -0.07645,0.06116 -0.152903,0.09174 -0.236999,0.09174 -0.229354,0 -0.366966,-0.214064 -0.366966,-0.519869 z"
           style="font-style:normal;font-variant:normal;font-weight:normal;font-stretch:normal;font-size:7.64512634px;font-family:Milkshake;-inkscape-font-specification:'Milkshake, Normal';font-variant-ligatures:normal;font-variant-caps:normal;font-variant-numeric:normal;font-feature-settings:normal;text-align:start;writing-mode:lr-tb;text-anchor:start;fill:#ffffff;stroke-width:1.10147786"
           id="path1210"
           inkscape:connector-curvature="0" />
        <path
           d="m 61.670297,69.308231 c 0,0.31345 0.236999,0.802738 0.236999,1.19264 0,0.34403 -0.191128,0.64219 -0.428127,0.64219 -0.275225,0 -0.374611,-0.428127 -0.374611,-0.871544 0,-0.09939 0.565739,-0.963286 0.565739,-0.963286 z m 2.155926,1.177349 c 0,0 0.06881,-0.114676 0.06881,-0.183483 0,-0.0841 -0.07645,-0.152902 -0.160548,-0.152902 -0.09174,0 -0.152902,0.107032 -0.152902,0.107032 0,0 -0.344031,0.504578 -0.947996,0.665126 0,0 0.175838,-0.191129 0.175838,-0.58103 0,-0.466353 -0.29816,-0.718642 -0.29816,-1.322607 0,-0.206418 0.183483,-0.397546 0.183483,-0.504578 0,-0.07645 -0.214064,-0.28287 -0.374611,-0.28287 -0.191128,0 -0.435772,0.183483 -0.795093,0.718642 -0.351676,0.542804 -0.512224,0.795093 -0.512224,0.795093 0,0 -0.733932,0.168193 -0.733932,0.61161 0,0.451063 0.6269,1.123834 1.383768,1.123834 1.567251,0 2.163571,-0.993867 2.163571,-0.993867 z"
           style="font-style:normal;font-variant:normal;font-weight:normal;font-stretch:normal;font-size:7.64512634px;font-family:Milkshake;-inkscape-font-specification:'Milkshake, Normal';font-variant-ligatures:normal;font-variant-caps:normal;font-variant-numeric:normal;font-feature-settings:normal;text-align:start;writing-mode:lr-tb;text-anchor:start;fill:#ffffff;stroke-width:1.10147786"
           id="path1212"
           inkscape:connector-curvature="0" />
        <path
           d="m 66.23599,71.425931 c 0.756868,0 1.314962,-0.940351 1.314962,-0.940351 0,0 0.06881,-0.114676 0.06881,-0.183483 0,-0.0841 -0.07645,-0.152902 -0.160548,-0.152902 -0.09174,0 -0.152902,0.107032 -0.152902,0.107032 0,0 -0.405192,0.65748 -0.818029,0.65748 -0.152902,0 -0.244644,-0.114676 -0.244644,-0.290514 0,-0.59632 0.489288,-1.261446 0.489288,-1.735444 0,-0.259934 -0.259934,-0.527514 -0.489288,-0.527514 -0.32874,0 -0.603965,0.168193 -0.634545,0.191128 0.05352,-0.06116 1.024447,-1.215575 1.024447,-1.85012 0,-0.275225 -0.344031,-0.672771 -0.688062,-0.672771 -1.421993,0 -2.484666,3.707886 -2.484666,4.984622 0,0.290515 0.443418,0.412837 0.749223,0.412837 0.107031,0 0.137612,-0.06116 0.137612,-0.152903 0,-1.391413 0.61161,-2.301183 1.146769,-2.301183 0.107032,0 0.168193,0.06881 0.168193,0.221709 0,0.28287 -0.397547,0.840964 -0.397547,1.391413 0,0.496933 0.389902,0.840964 0.970931,0.840964 z m 0.02294,-4.732333 c 0,0.466352 -0.925061,1.788959 -1.452574,2.224731 0.496933,-1.360832 1.024446,-2.377634 1.307316,-2.377634 0.09174,0 0.145258,0.06116 0.145258,0.152903 z"
           style="font-style:normal;font-variant:normal;font-weight:normal;font-stretch:normal;font-size:7.64512634px;font-family:Milkshake;-inkscape-font-specification:'Milkshake, Normal';font-variant-ligatures:normal;font-variant-caps:normal;font-variant-numeric:normal;font-feature-settings:normal;text-align:start;writing-mode:lr-tb;text-anchor:start;fill:#ffffff;stroke-width:1.10147786"
           id="path1214"
           inkscape:connector-curvature="0" />
        <path
           d="m 69.984253,70.623193 c 0,-0.550449 0.405191,-1.146769 0.405191,-1.605477 0,-0.29816 -0.31345,-0.657481 -0.649835,-0.657481 -0.649836,0 -1.200285,0.489288 -1.200285,0.489288 -0.236999,-0.366966 -0.420482,-0.412836 -0.535159,-0.412836 -0.09174,0 -0.168193,0.05351 -0.206419,0.145257 -0.175837,0.435772 -0.619255,1.574896 -0.619255,2.423505 0,0.244644 0.31345,0.420482 0.718642,0.420482 0.107032,0 0.168193,-0.02294 0.168193,-0.152903 0,-1.467864 0.718642,-2.377634 1.177349,-2.377634 0.0841,0 0.152903,0.05352 0.152903,0.122322 0,0.458708 -0.389902,1.009157 -0.389902,1.636057 0,0.428127 0.389902,0.772158 0.970931,0.772158 0.756868,0 1.314962,-0.940351 1.314962,-0.940351 0,0 0.06881,-0.114676 0.06881,-0.183483 0,-0.0841 -0.07645,-0.152902 -0.160547,-0.152902 -0.09174,0 -0.152903,0.107032 -0.152903,0.107032 0,0 -0.405192,0.65748 -0.818028,0.65748 -0.152903,0 -0.244644,-0.114676 -0.244644,-0.290514 z"
           style="font-style:normal;font-variant:normal;font-weight:normal;font-stretch:normal;font-size:7.64512634px;font-family:Milkshake;-inkscape-font-specification:'Milkshake, Normal';font-variant-ligatures:normal;font-variant-caps:normal;font-variant-numeric:normal;font-feature-settings:normal;text-align:start;writing-mode:lr-tb;text-anchor:start;fill:#ffffff;stroke-width:1.10147786"
           id="path1216"
           inkscape:connector-curvature="0" />
        <path
           d="m 76.431244,70.48558 c 0,0 0.06881,-0.114676 0.06881,-0.183483 0,-0.0841 -0.07645,-0.152902 -0.160548,-0.152902 -0.09174,0 -0.152902,0.107032 -0.152902,0.107032 0,0 -0.382257,0.519868 -0.902125,0.519868 -0.122322,0 -0.214064,-0.03822 -0.290515,-0.0841 0.428127,-0.519869 0.710997,-1.20793 0.710997,-1.712508 0,-0.351676 -0.382257,-0.619256 -0.611611,-0.619256 -0.114676,0 -0.160547,0.06116 -0.160547,0.152903 0,0.665126 -0.183483,1.406703 -0.443417,1.895991 -0.122323,0.0076 -0.374612,0.206419 -0.374612,0.374611 0,0.03058 0.0076,0.06116 0.03058,0.09174 -0.0841,0.06116 -0.175838,0.09939 -0.259934,0.09939 -0.129968,0 -0.198774,-0.0841 -0.198774,-0.229353 0,-0.764513 0.473998,-1.50609 0.473998,-1.949508 0,-0.114676 -0.374611,-0.435772 -0.59632,-0.435772 -0.09939,0 -0.175838,0.06116 -0.214063,0.145258 -0.152903,0.389901 -0.366966,1.108543 -0.58103,1.651347 -0.183483,0.451062 -0.512223,0.787448 -0.749222,0.787448 -0.114677,0 -0.175838,-0.107032 -0.175838,-0.229354 0,-0.741577 0.496933,-1.460219 0.496933,-1.918927 0,-0.114676 -0.374611,-0.435772 -0.603965,-0.435772 -0.09174,0 -0.168193,0.06116 -0.206418,0.145258 -0.183483,0.428127 -0.59632,1.628412 -0.59632,2.178861 0,0.412837 0.443417,0.741577 0.795093,0.741577 0.588675,0 1.070318,-0.61161 1.070318,-0.61161 0,0 0.34403,0.61161 0.902124,0.61161 0.305806,0 0.611611,-0.129967 0.87919,-0.344031 0.175838,0.03823 0.366966,0.06116 0.519869,0.06116 0.894479,0 1.330252,-0.657481 1.330252,-0.657481 z"
           style="font-style:normal;font-variant:normal;font-weight:normal;font-stretch:normal;font-size:7.64512634px;font-family:Milkshake;-inkscape-font-specification:'Milkshake, Normal';font-variant-ligatures:normal;font-variant-caps:normal;font-variant-numeric:normal;font-feature-settings:normal;text-align:start;writing-mode:lr-tb;text-anchor:start;fill:#ffffff;stroke-width:1.10147786"
           id="path1218"
           inkscape:connector-curvature="0" />
        <path
           d="m 79.839657,70.48558 c 0,0 0.06881,-0.114676 0.06881,-0.183483 0,-0.0841 -0.07645,-0.152902 -0.160548,-0.152902 -0.09174,0 -0.152903,0.107032 -0.152903,0.107032 0,0 -0.382256,0.519868 -0.902125,0.519868 -0.04587,0 -0.0841,-0.0076 -0.122322,-0.01529 0.29816,-0.382256 0.473998,-0.863899 0.473998,-1.269091 0,-0.703352 -0.489288,-1.131479 -1.123833,-1.131479 -0.795093,0 -1.77367,0.703352 -1.77367,1.987733 0,0.59632 0.558095,1.077963 1.19264,1.077963 0.328741,0 0.6269,-0.114677 0.871544,-0.305805 0.107032,0.01529 0.206419,0.02294 0.29816,0.02294 0.89448,0 1.330252,-0.657481 1.330252,-0.657481 z m -2.790471,0.05352 c 0,-1.032092 0.535159,-1.788959 0.87919,-1.788959 0.175838,0 0.29816,0.137612 0.29816,0.481643 0,0.336385 -0.0841,0.810383 -0.236999,1.192639 -0.02294,-0.0076 -0.05352,-0.01529 -0.0841,-0.01529 -0.122322,0 -0.382256,0.206419 -0.382256,0.374611 0,0.06881 0.04587,0.129967 0.129967,0.183483 -0.07645,0.06116 -0.152902,0.09174 -0.236999,0.09174 -0.229353,0 -0.366966,-0.214064 -0.366966,-0.519869 z"
           style="font-style:normal;font-variant:normal;font-weight:normal;font-stretch:normal;font-size:7.64512634px;font-family:Milkshake;-inkscape-font-specification:'Milkshake, Normal';font-variant-ligatures:normal;font-variant-caps:normal;font-variant-numeric:normal;font-feature-settings:normal;text-align:start;writing-mode:lr-tb;text-anchor:start;fill:#ffffff;stroke-width:1.10147786"
           id="path1220"
           inkscape:connector-curvature="0" />
        <path
           d="m 80.812978,69.308231 c 0,0.31345 0.236999,0.802738 0.236999,1.19264 0,0.34403 -0.191129,0.64219 -0.428127,0.64219 -0.275225,0 -0.374612,-0.428127 -0.374612,-0.871544 0,-0.09939 0.56574,-0.963286 0.56574,-0.963286 z m 2.155925,1.177349 c 0,0 0.06881,-0.114676 0.06881,-0.183483 0,-0.0841 -0.07645,-0.152902 -0.160547,-0.152902 -0.09174,0 -0.152903,0.107032 -0.152903,0.107032 0,0 -0.34403,0.504578 -0.947995,0.665126 0,0 0.175837,-0.191129 0.175837,-0.58103 0,-0.466353 -0.298159,-0.718642 -0.298159,-1.322607 0,-0.206418 0.183483,-0.397546 0.183483,-0.504578 0,-0.07645 -0.214064,-0.28287 -0.374612,-0.28287 -0.191128,0 -0.435772,0.183483 -0.795093,0.718642 -0.351676,0.542804 -0.512223,0.795093 -0.512223,0.795093 0,0 -0.733932,0.168193 -0.733932,0.61161 0,0.451063 0.6269,1.123834 1.383768,1.123834 1.56725,0 2.16357,-0.993867 2.16357,-0.993867 z"
           style="font-style:normal;font-variant:normal;font-weight:normal;font-stretch:normal;font-size:7.64512634px;font-family:Milkshake;-inkscape-font-specification:'Milkshake, Normal';font-variant-ligatures:normal;font-variant-caps:normal;font-variant-numeric:normal;font-feature-settings:normal;text-align:start;writing-mode:lr-tb;text-anchor:start;fill:#ffffff;stroke-width:1.10147786"
           id="path1222"
           inkscape:connector-curvature="0" />
        <path
           d="m 85.386315,70.623193 c 0,-0.741578 0.435773,-1.368478 0.435773,-1.827186 0,-0.114676 -0.374612,-0.435772 -0.59632,-0.435772 -0.09939,0 -0.175838,0.06116 -0.214064,0.145258 -0.183483,0.428127 -0.473998,1.567251 -0.64219,1.895991 -0.122322,0.244644 -0.428127,0.542804 -0.672771,0.542804 -0.114677,0 -0.175838,-0.107032 -0.175838,-0.229354 0,-0.741577 0.496933,-1.460219 0.496933,-1.918927 0,-0.114676 -0.374611,-0.435772 -0.603965,-0.435772 -0.09174,0 -0.168193,0.06116 -0.206419,0.145258 -0.183483,0.428127 -0.596319,1.628412 -0.596319,2.178861 0,0.412837 0.443417,0.741577 0.795093,0.741577 0.397546,0 0.802738,-0.290515 1.047382,-0.573385 0.09174,0.28287 0.344031,0.573385 0.92506,0.573385 0.756868,0 1.314962,-0.940351 1.314962,-0.940351 0,0 0.06881,-0.114676 0.06881,-0.183483 0,-0.0841 -0.07645,-0.152902 -0.160547,-0.152902 -0.09174,0 -0.152903,0.107032 -0.152903,0.107032 0,0 -0.405192,0.65748 -0.818029,0.65748 -0.152902,0 -0.244644,-0.114676 -0.244644,-0.290514 z"
           style="font-style:normal;font-variant:normal;font-weight:normal;font-stretch:normal;font-size:7.64512634px;font-family:Milkshake;-inkscape-font-specification:'Milkshake, Normal';font-variant-ligatures:normal;font-variant-caps:normal;font-variant-numeric:normal;font-feature-settings:normal;text-align:start;writing-mode:lr-tb;text-anchor:start;fill:#ffffff;stroke-width:1.10147786"
           id="path1224"
           inkscape:connector-curvature="0" />
      </g>
      <g
         transform="matrix(0.03752479,0,0,0.03752479,106.28676,48.496032)"
         id="g955"
         style="fill:#ffffff;stroke-width:7.70244217">
        <path
           inkscape:connector-curvature="0"
           style="color:#000000;font-style:normal;font-variant:normal;font-weight:normal;font-stretch:normal;font-size:medium;line-height:normal;font-family:sans-serif;font-variant-ligatures:normal;font-variant-position:normal;font-variant-caps:normal;font-variant-numeric:normal;font-variant-alternates:normal;font-feature-settings:normal;text-indent:0;text-align:start;text-decoration:none;text-decoration-line:none;text-decoration-style:solid;text-decoration-color:#000000;letter-spacing:normal;word-spacing:normal;text-transform:none;writing-mode:lr-tb;direction:ltr;text-orientation:mixed;dominant-baseline:auto;baseline-shift:baseline;text-anchor:start;white-space:normal;shape-padding:0;clip-rule:nonzero;display:inline;overflow:visible;visibility:visible;opacity:1;isolation:auto;mix-blend-mode:normal;color-interpolation:sRGB;color-interpolation-filters:linearRGB;solid-color:#000000;solid-opacity:1;vector-effect:none;fill:#ffffff;fill-opacity:1;fill-rule:nonzero;stroke:none;stroke-width:154.04884338;stroke-linecap:round;stroke-linejoin:round;stroke-miterlimit:4;stroke-dasharray:none;stroke-dashoffset:0;stroke-opacity:1;color-rendering:auto;image-rendering:auto;shape-rendering:auto;text-rendering:auto;enable-background:accumulate"
           d="m -1919.0547,513.64844 a 10.001,10.001 0 0 0 -5.2344,1.33594 l -294.6894,170.13671 a 10.001,10.001 0 0 0 -4.9981,8.66016 v 85.28711 h 20 v -79.51367 l 284.6875,-164.36328 284.6856,164.36328 v 79.51367 h 20.0019 v -85.28711 a 10.001,10.001 0 0 0 -5,-8.66016 L -1914.291,514.98438 a 10.001,10.001 0 0 0 -4.7637,-1.33594 z m -304.9219,435.125 v 85.28516 a 10.001,10.001 0 0 0 4.9981,8.6602 l 294.6894,170.1367 a 10.001,10.001 0 0 0 9.9981,0 l 294.6894,-170.1367 a 10.001,10.001 0 0 0 5,-8.6602 v -85.28516 h -20.0019 v 79.51176 l -284.6856,164.3632 -284.6875,-164.3632 v -79.51176 z"
           transform="matrix(0.91541035,0,0,0.91541035,781.24234,-226.53865)"
           id="path951" />
        <path
           inkscape:connector-curvature="0"
           style="color:#000000;font-style:normal;font-variant:normal;font-weight:normal;font-stretch:normal;font-size:medium;line-height:normal;font-family:sans-serif;font-variant-ligatures:normal;font-variant-position:normal;font-variant-caps:normal;font-variant-numeric:normal;font-variant-alternates:normal;font-feature-settings:normal;text-indent:0;text-align:start;text-decoration:none;text-decoration-line:none;text-decoration-style:solid;text-decoration-color:#000000;letter-spacing:normal;word-spacing:normal;text-transform:none;writing-mode:lr-tb;direction:ltr;text-orientation:mixed;dominant-baseline:auto;baseline-shift:baseline;text-anchor:start;white-space:normal;shape-padding:0;clip-rule:nonzero;display:inline;overflow:visible;visibility:visible;opacity:1;isolation:auto;mix-blend-mode:normal;color-interpolation:sRGB;color-interpolation-filters:linearRGB;solid-color:#000000;solid-opacity:1;vector-effect:none;fill:#ffffff;fill-opacity:1;fill-rule:nonzero;stroke:none;stroke-width:154.04884338;stroke-linecap:round;stroke-linejoin:round;stroke-miterlimit:4;stroke-dasharray:none;stroke-dashoffset:0;stroke-opacity:1;color-rendering:auto;image-rendering:auto;shape-rendering:auto;text-rendering:auto;enable-background:accumulate"
           d="m -1919.0547,610.61328 a 9.9921939,10.009814 0 0 0 -5.2305,1.33789 l -210.3359,121.65039 a 9.9921939,10.009814 0 0 0 -4.9941,8.66797 v 36.79883 h 19.9824 v -31.01953 l 200.3437,-115.87305 200.3418,115.87305 v 31.01953 h 19.9825 v -36.79883 a 9.9921939,10.009814 0 0 0 -4.9942,-8.66797 l -210.3359,-121.65039 a 9.9921939,10.009814 0 0 0 -4.7598,-1.33789 z m -220.5605,338.16016 v 36.79687 a 9.9921939,10.009814 0 0 0 4.9941,8.66797 l 210.3359,121.65232 a 9.9921939,10.009814 0 0 0 9.9903,0 l 210.3359,-121.65232 a 9.9921939,10.009814 0 0 0 4.9942,-8.66797 v -36.79687 h -19.9825 v 31.01953 l -200.3418,115.87113 -200.3437,-115.87113 v -31.01953 z"
           transform="matrix(0.91541035,0,0,0.91541035,781.24234,-226.53865)"
           id="path953" />
      </g>
    </g>
    <g
       id="g1035"
       transform="translate(-109.23512,-55.184524)">
      <text
         xml:space="preserve"
         style="font-style:normal;font-variant:normal;font-weight:normal;font-stretch:normal;font-size:7.64512634px;line-height:1.25;font-family:Milkshake;-inkscape-font-specification:'Milkshake, Normal';font-variant-ligatures:normal;font-variant-caps:normal;font-variant-numeric:normal;font-feature-settings:normal;text-align:start;letter-spacing:0px;word-spacing:0px;writing-mode:lr-tb;text-anchor:start;opacity:1;fill:#ffffff;fill-opacity:1;stroke:none;stroke-width:1.10147786"
         x="93.534561"
         y="71.34948"
         id="text852"><tspan
           sodipodi:role="line"
           id="tspan850"
           x="93.534561"
           y="71.34948"
           style="font-style:normal;font-variant:normal;font-weight:normal;font-stretch:normal;font-size:7.64512634px;font-family:Milkshake;-inkscape-font-specification:'Milkshake, Normal';font-variant-ligatures:normal;font-variant-caps:normal;font-variant-numeric:normal;font-feature-settings:normal;text-align:start;writing-mode:lr-tb;text-anchor:start;fill:#ffffff;stroke-width:1.10147786">Jaynwosu</tspan></text>
      <g
         id="g945"
         transform="matrix(0.03752479,0,0,0.03752479,145.70519,48.496031)"
         style="fill:#ffffff;stroke-width:7.70244217">
        <path
           id="path925"
           transform="matrix(0.91541035,0,0,0.91541035,781.24234,-226.53865)"
           d="m -1919.0547,513.64844 a 10.001,10.001 0 0 0 -5.2344,1.33594 l -294.6894,170.13671 a 10.001,10.001 0 0 0 -4.9981,8.66016 v 85.28711 h 20 v -79.51367 l 284.6875,-164.36328 284.6856,164.36328 v 79.51367 h 20.0019 v -85.28711 a 10.001,10.001 0 0 0 -5,-8.66016 L -1914.291,514.98438 a 10.001,10.001 0 0 0 -4.7637,-1.33594 z m -304.9219,435.125 v 85.28516 a 10.001,10.001 0 0 0 4.9981,8.6602 l 294.6894,170.1367 a 10.001,10.001 0 0 0 9.9981,0 l 294.6894,-170.1367 a 10.001,10.001 0 0 0 5,-8.6602 v -85.28516 h -20.0019 v 79.51176 l -284.6856,164.3632 -284.6875,-164.3632 v -79.51176 z"
           style="color:#000000;font-style:normal;font-variant:normal;font-weight:normal;font-stretch:normal;font-size:medium;line-height:normal;font-family:sans-serif;font-variant-ligatures:normal;font-variant-position:normal;font-variant-caps:normal;font-variant-numeric:normal;font-variant-alternates:normal;font-feature-settings:normal;text-indent:0;text-align:start;text-decoration:none;text-decoration-line:none;text-decoration-style:solid;text-decoration-color:#000000;letter-spacing:normal;word-spacing:normal;text-transform:none;writing-mode:lr-tb;direction:ltr;text-orientation:mixed;dominant-baseline:auto;baseline-shift:baseline;text-anchor:start;white-space:normal;shape-padding:0;clip-rule:nonzero;display:inline;overflow:visible;visibility:visible;opacity:1;isolation:auto;mix-blend-mode:normal;color-interpolation:sRGB;color-interpolation-filters:linearRGB;solid-color:#000000;solid-opacity:1;vector-effect:none;fill:#ffffff;fill-opacity:1;fill-rule:nonzero;stroke:none;stroke-width:154.04884338;stroke-linecap:round;stroke-linejoin:round;stroke-miterlimit:4;stroke-dasharray:none;stroke-dashoffset:0;stroke-opacity:1;color-rendering:auto;image-rendering:auto;shape-rendering:auto;text-rendering:auto;enable-background:accumulate"
           inkscape:connector-curvature="0" />
        <path
           id="path927"
           transform="matrix(0.91541035,0,0,0.91541035,781.24234,-226.53865)"
           d="m -1919.0547,610.61328 a 9.9921939,10.009814 0 0 0 -5.2305,1.33789 l -210.3359,121.65039 a 9.9921939,10.009814 0 0 0 -4.9941,8.66797 v 36.79883 h 19.9824 v -31.01953 l 200.3437,-115.87305 200.3418,115.87305 v 31.01953 h 19.9825 v -36.79883 a 9.9921939,10.009814 0 0 0 -4.9942,-8.66797 l -210.3359,-121.65039 a 9.9921939,10.009814 0 0 0 -4.7598,-1.33789 z m -220.5605,338.16016 v 36.79687 a 9.9921939,10.009814 0 0 0 4.9941,8.66797 l 210.3359,121.65232 a 9.9921939,10.009814 0 0 0 9.9903,0 l 210.3359,-121.65232 a 9.9921939,10.009814 0 0 0 4.9942,-8.66797 v -36.79687 h -19.9825 v 31.01953 l -200.3418,115.87113 -200.3437,-115.87113 v -31.01953 z"
           style="color:#000000;font-style:normal;font-variant:normal;font-weight:normal;font-stretch:normal;font-size:medium;line-height:normal;font-family:sans-serif;font-variant-ligatures:normal;font-variant-position:normal;font-variant-caps:normal;font-variant-numeric:normal;font-variant-alternates:normal;font-feature-settings:normal;text-indent:0;text-align:start;text-decoration:none;text-decoration-line:none;text-decoration-style:solid;text-decoration-color:#000000;letter-spacing:normal;word-spacing:normal;text-transform:none;writing-mode:lr-tb;direction:ltr;text-orientation:mixed;dominant-baseline:auto;baseline-shift:baseline;text-anchor:start;white-space:normal;shape-padding:0;clip-rule:nonzero;display:inline;overflow:visible;visibility:visible;opacity:1;isolation:auto;mix-blend-mode:normal;color-interpolation:sRGB;color-interpolation-filters:linearRGB;solid-color:#000000;solid-opacity:1;vector-effect:none;fill:#ffffff;fill-opacity:1;fill-rule:nonzero;stroke:none;stroke-width:154.04884338;stroke-linecap:round;stroke-linejoin:round;stroke-miterlimit:4;stroke-dasharray:none;stroke-dashoffset:0;stroke-opacity:1;color-rendering:auto;image-rendering:auto;shape-rendering:auto;text-rendering:auto;enable-background:accumulate"
           inkscape:connector-curvature="0" />
      </g>
    </g>
  </g>
</svg>
